<?xml version='1.0' encoding='UTF-8'?>
<!DOCTYPE svg PUBLIC "-//W3C//DTD SVG 1.1//EN" "http://www.w3.org/Graphics/SVG/1.1/DTD/svg11.dtd">
<!-- Created with matplotlib (http://matplotlib.org/) -->
<svg xmlns="http://www.w3.org/2000/svg" xmlns:xlink="http://www.w3.org/1999/xlink" height="400px" version="1.1" viewBox="0 0 600 400" width="600px">
  <title>mplwp_inverse_trigonometric_functions_piaxis.svg</title>
  <desc>http://commons.wikimedia.org/wiki/File:mplwp_inverse_trigonometric_functions_piaxis.svg
Plot created with mplwp, the Matplotlib extension for Wikipedia plots.</desc>
  <defs>
    <style type="text/css">
*{stroke-linecap:butt;stroke-linejoin:round;}
  </style>
  </defs>
  <defs>
    <clipPath id="p6e8b04ffa7">
      <rect height="355.0" width="515.0" x="63.5" y="18.5"/>
    </clipPath>
  </defs>
  <g id="figure_1">
    <g id="patch_1">
      <path d="
M 0 400
L 600 400
L 600 0
L 0 0
z 
" style="fill:#ffffff;"/>
    </g>
    <g id="axes_1">
      <g id="patch_2">
        <path d="
M 63.5 373.5
L 578.5 373.5
L 578.5 18.5
L 63.5 18.5
z 
" style="fill:#ffffff;"/>
      </g>
      <g id="line2d_1">
        <path clip-path="url(#p6e8b04ffa7)" d="
M 256.625 348.143
L 256.737 344.329
L 257.074 340.515
L 257.633 336.702
L 258.423 332.847
L 259.447 328.953
L 260.724 324.977
L 262.262 320.919
L 264.07 316.781
L 266.175 312.521
L 268.589 308.139
L 271.347 303.595
L 274.49 298.849
L 278.065 293.858
L 282.122 288.584
L 286.746 282.945
L 292.063 276.818
L 298.245 270.043
L 305.775 262.131
L 316.07 251.664
L 338.338 229.106
L 345.897 221.073
L 352.013 214.257
L 357.218 208.131
L 361.722 202.491
L 365.654 197.217
L 369.101 192.227
L 372.113 187.48
L 374.738 182.936
L 377.038 178.514
L 379.005 174.254
L 380.674 170.115
L 382.073 166.058
L 383.209 162.082
L 384.094 158.187
L 384.744 154.333
L 385.164 150.519
L 385.359 146.706
L 385.375 145.286" style="fill:none;stroke:#0000cc;stroke-linecap:square;stroke-width:2.4;"/>
      </g>
      <g id="line2d_2">
        <defs>
          <path d="
M 0 2.4
C 0.636487 2.4 1.24699 2.14712 1.69706 1.69706
C 2.14712 1.24699 2.4 0.636487 2.4 0
C 2.4 -0.636487 2.14712 -1.24699 1.69706 -1.69706
C 1.24699 -2.14712 0.636487 -2.4 0 -2.4
C -0.636487 -2.4 -1.24699 -2.14712 -1.69706 -1.69706
C -2.14712 -1.24699 -2.4 -0.636487 -2.4 0
C -2.4 0.636487 -2.14712 1.24699 -1.69706 1.69706
C -1.24699 2.14712 -0.636487 2.4 0 2.4
z 
" id="mddfaa3f1b3" style="stroke:#0000cc;stroke-width:0.5;"/>
        </defs>
        <g clip-path="url(#p6e8b04ffa7)">
          <use style="fill:#0000cc;stroke:#0000cc;stroke-width:0.5;" x="256.625" xlink:href="#mddfaa3f1b3" y="348.142857143"/>
          <use style="fill:#0000cc;stroke:#0000cc;stroke-width:0.5;" x="385.375" xlink:href="#mddfaa3f1b3" y="145.285714286"/>
        </g>
      </g>
      <g id="line2d_3">
        <path clip-path="url(#p6e8b04ffa7)" d="
M 385.375 246.714
L 385.263 242.901
L 384.926 239.087
L 384.367 235.273
L 383.577 231.419
L 382.553 227.524
L 381.276 223.548
L 379.738 219.491
L 377.93 215.353
L 375.825 211.093
L 373.411 206.711
L 370.653 202.167
L 367.51 197.42
L 363.935 192.43
L 359.878 187.155
L 355.254 181.516
L 349.937 175.39
L 343.755 168.614
L 336.225 160.703
L 325.93 150.235
L 303.662 127.678
L 296.103 119.645
L 289.987 112.829
L 284.782 106.702
L 280.278 101.063
L 276.346 95.7886
L 272.899 90.7983
L 269.887 86.0514
L 267.262 81.5074
L 264.962 77.0851
L 262.995 72.8251
L 261.326 68.6869
L 259.927 64.6297
L 258.791 60.6537
L 257.906 56.7589
L 257.256 52.9046
L 256.836 49.0909
L 256.641 45.2771
L 256.625 43.8571" style="fill:none;stroke:#dd00aa;stroke-linecap:square;stroke-width:2.4;"/>
      </g>
      <g id="line2d_4">
        <defs>
          <path d="
M 0 2.4
C 0.636487 2.4 1.24699 2.14712 1.69706 1.69706
C 2.14712 1.24699 2.4 0.636487 2.4 0
C 2.4 -0.636487 2.14712 -1.24699 1.69706 -1.69706
C 1.24699 -2.14712 0.636487 -2.4 0 -2.4
C -0.636487 -2.4 -1.24699 -2.14712 -1.69706 -1.69706
C -2.14712 -1.24699 -2.4 -0.636487 -2.4 0
C -2.4 0.636487 -2.14712 1.24699 -1.69706 1.69706
C -1.24699 2.14712 -0.636487 2.4 0 2.4
z 
" id="mb006d3fb8d" style="stroke:#dd00aa;stroke-width:0.5;"/>
        </defs>
        <g clip-path="url(#p6e8b04ffa7)">
          <use style="fill:#dd00aa;stroke:#dd00aa;stroke-width:0.5;" x="385.375" xlink:href="#mb006d3fb8d" y="246.714285714"/>
          <use style="fill:#dd00aa;stroke:#dd00aa;stroke-width:0.5;" x="256.625" xlink:href="#mb006d3fb8d" y="43.8571428571"/>
        </g>
      </g>
      <g id="line2d_5">
        <path clip-path="url(#p6e8b04ffa7)" d="
M 63.5 332.324
L 85.336 330.924
L 104.7 329.464
L 122.004 327.94
L 137.557 326.35
L 151.565 324.697
L 164.234 322.983
L 175.77 321.201
L 186.379 319.341
L 196.061 317.421
L 205.022 315.423
L 213.365 313.338
L 221.193 311.153
L 228.506 308.881
L 235.407 306.504
L 241.896 304.034
L 248.076 301.444
L 253.947 298.744
L 259.612 295.895
L 265.071 292.903
L 270.427 289.712
L 275.68 286.323
L 280.83 282.737
L 286.083 278.806
L 291.336 274.596
L 296.795 269.937
L 302.666 264.63
L 309.258 258.364
L 318.013 249.708
L 334.39 233.472
L 341.188 227.092
L 347.162 221.789
L 352.724 217.149
L 358.08 212.97
L 363.333 209.153
L 368.586 205.611
L 373.839 202.335
L 379.195 199.253
L 384.757 196.311
L 390.422 193.565
L 396.396 190.919
L 402.576 188.425
L 409.065 186.045
L 415.966 183.752
L 423.279 181.559
L 431.107 179.448
L 439.45 177.431
L 448.411 175.495
L 458.093 173.633
L 468.599 171.842
L 480.032 170.122
L 492.598 168.461
L 506.4 166.865
L 521.541 165.343
L 538.33 163.881
L 557.076 162.476
L 578.088 161.129
L 578.5 161.104" style="fill:none;stroke:#999900;stroke-linecap:square;stroke-width:2.4;"/>
      </g>
      <g id="line2d_6">
        <path clip-path="url(#p6e8b04ffa7)" d="
M 63.5 59.6758
L 85.336 61.0757
L 104.7 62.5358
L 122.004 64.0598
L 137.557 65.65
L 151.565 67.3026
L 164.234 69.0173
L 175.77 70.7987
L 186.379 72.6593
L 196.061 74.5786
L 205.022 76.5769
L 213.365 78.6619
L 221.193 80.8468
L 228.506 83.1185
L 235.407 85.4959
L 241.896 87.9659
L 248.076 90.556
L 253.947 93.2559
L 259.612 96.1048
L 265.071 99.0973
L 270.427 102.288
L 275.68 105.677
L 280.83 109.263
L 286.083 113.194
L 291.336 117.404
L 296.795 122.063
L 302.666 127.37
L 309.258 133.636
L 318.013 142.292
L 334.39 158.528
L 341.188 164.908
L 347.162 170.211
L 352.724 174.851
L 358.08 179.03
L 363.333 182.847
L 368.586 186.389
L 373.839 189.665
L 379.195 192.747
L 384.757 195.689
L 390.422 198.435
L 396.396 201.081
L 402.576 203.575
L 409.065 205.955
L 415.966 208.248
L 423.279 210.441
L 431.107 212.552
L 439.45 214.569
L 448.411 216.505
L 458.093 218.367
L 468.599 220.158
L 480.032 221.878
L 492.598 223.539
L 506.4 225.135
L 521.541 226.657
L 538.33 228.119
L 557.076 229.524
L 578.088 230.871
L 578.5 230.896" style="fill:none;stroke:#00bb00;stroke-linecap:square;stroke-width:2.4;"/>
      </g>
      <g id="line2d_7">
        <path clip-path="url(#p6e8b04ffa7)" d="
M 385.375 246.714
L 385.485 242.941
L 385.817 239.168
L 386.37 235.435
L 387.135 231.784
L 388.111 228.214
L 389.282 224.765
L 390.661 221.398
L 392.231 218.152
L 393.988 215.028
L 395.93 212.026
L 398.085 209.105
L 400.427 206.305
L 402.994 203.587
L 405.75 200.99
L 408.742 198.475
L 411.983 196.041
L 415.484 193.687
L 419.329 191.375
L 423.479 189.143
L 427.948 186.993
L 432.856 184.883
L 438.142 182.855
L 443.954 180.867
L 450.219 178.96
L 457.122 177.094
L 464.751 175.268
L 473.006 173.523
L 482.158 171.819
L 492.344 170.156
L 503.424 168.574
L 515.811 167.032
L 529.726 165.531
L 544.97 164.111
L 562.193 162.731
L 581.771 161.393
L 601 160.265
M -1 132.289
L 26.7229 131.045
L 50.8914 129.747
L 72.4684 128.367
L 91.2514 126.947
L 107.723 125.487
L 122.625 123.945
L 135.796 122.363
L 147.503 120.74
L 158.197 119.036
L 167.757 117.291
L 176.34 115.506
L 184.237 113.64
L 191.355 111.733
L 197.92 109.745
L 203.858 107.717
L 209.244 105.647
L 214.23 103.497
L 218.76 101.306
L 222.955 99.0343
L 226.834 96.6811
L 230.358 94.2874
L 233.613 91.8126
L 236.612 89.2566
L 239.369 86.6194
L 241.93 83.8606
L 244.262 81.0206
L 246.376 78.0994
L 248.303 75.0566
L 250.041 71.892
L 251.571 68.6463
L 252.912 65.2789
L 254.048 61.8303
L 254.99 58.26
L 255.722 54.6086
L 256.243 50.876
L 256.544 47.1029
L 256.625 43.8571" style="fill:none;stroke:#00bbcc;stroke-linecap:square;stroke-width:2.4;"/>
      </g>
      <g id="line2d_8">
        <defs>
          <path d="
M 0 2.4
C 0.636487 2.4 1.24699 2.14712 1.69706 1.69706
C 2.14712 1.24699 2.4 0.636487 2.4 0
C 2.4 -0.636487 2.14712 -1.24699 1.69706 -1.69706
C 1.24699 -2.14712 0.636487 -2.4 0 -2.4
C -0.636487 -2.4 -1.24699 -2.14712 -1.69706 -1.69706
C -2.14712 -1.24699 -2.4 -0.636487 -2.4 0
C -2.4 0.636487 -2.14712 1.24699 -1.69706 1.69706
C -1.24699 2.14712 -0.636487 2.4 0 2.4
z 
" id="m8592c1f38f" style="stroke:#00bbcc;stroke-width:0.5;"/>
        </defs>
        <g clip-path="url(#p6e8b04ffa7)">
          <use style="fill:#00bbcc;stroke:#00bbcc;stroke-width:0.5;" x="385.375" xlink:href="#m8592c1f38f" y="246.714285714"/>
          <use style="fill:#00bbcc;stroke:#00bbcc;stroke-width:0.5;" x="256.625" xlink:href="#m8592c1f38f" y="43.8571428571"/>
        </g>
      </g>
      <g id="line2d_9">
        <path clip-path="url(#p6e8b04ffa7)" d="
M 256.625 348.143
L 256.515 344.37
L 256.183 340.597
L 255.63 336.864
L 254.865 333.213
L 253.889 329.642
L 252.718 326.194
L 251.339 322.826
L 249.769 319.581
L 248.012 316.457
L 246.07 313.454
L 243.915 310.533
L 241.573 307.734
L 239.006 305.015
L 236.25 302.419
L 233.258 299.903
L 230.017 297.469
L 226.516 295.116
L 222.671 292.803
L 218.521 290.572
L 214.052 288.422
L 209.144 286.312
L 203.858 284.283
L 198.046 282.295
L 191.781 280.389
L 184.878 278.522
L 177.249 276.697
L 168.994 274.952
L 159.842 273.248
L 149.656 271.585
L 138.576 270.002
L 126.189 268.461
L 112.274 266.959
L 97.0304 265.539
L 79.8066 264.16
L 60.2286 262.821
L 38.583 261.563
L 13.7945 260.346
L -1 259.711
M 601 231.735
L 578.596 230.405
L 558.956 229.025
L 541.283 227.565
L 525.762 226.063
L 512.044 224.522
L 499.563 222.899
L 488.458 221.235
L 478.311 219.491
L 469.231 217.706
L 461.074 215.88
L 453.567 213.973
L 446.796 212.026
L 440.668 210.038
L 435.003 207.969
L 429.863 205.859
L 425.107 203.668
L 420.785 201.437
L 416.784 199.124
L 413.087 196.73
L 409.677 194.255
L 406.584 191.74
L 403.737 189.143
L 401.087 186.425
L 398.669 183.626
L 396.472 180.745
L 394.462 177.743
L 392.663 174.659
L 391.049 171.454
L 389.624 168.127
L 388.405 164.719
L 387.378 161.19
L 386.56 157.579
L 385.95 153.887
L 385.558 150.154
L 385.384 146.381
L 385.375 145.286" style="fill:none;stroke:#af77dd;stroke-linecap:square;stroke-width:2.4;"/>
      </g>
      <g id="line2d_10">
        <defs>
          <path d="
M 0 2.4
C 0.636487 2.4 1.24699 2.14712 1.69706 1.69706
C 2.14712 1.24699 2.4 0.636487 2.4 0
C 2.4 -0.636487 2.14712 -1.24699 1.69706 -1.69706
C 1.24699 -2.14712 0.636487 -2.4 0 -2.4
C -0.636487 -2.4 -1.24699 -2.14712 -1.69706 -1.69706
C -2.14712 -1.24699 -2.4 -0.636487 -2.4 0
C -2.4 0.636487 -2.14712 1.24699 -1.69706 1.69706
C -1.24699 2.14712 -0.636487 2.4 0 2.4
z 
" id="m607a1a4e36" style="stroke:#af77dd;stroke-width:0.5;"/>
        </defs>
        <g clip-path="url(#p6e8b04ffa7)">
          <use style="fill:#af77dd;stroke:#af77dd;stroke-width:0.5;" x="256.625" xlink:href="#m607a1a4e36" y="348.142857143"/>
          <use style="fill:#af77dd;stroke:#af77dd;stroke-width:0.5;" x="385.375" xlink:href="#m607a1a4e36" y="145.285714286"/>
        </g>
      </g>
      <g id="matplotlib.axis_1">
        <g id="xtick_1">
          <g id="line2d_11">
            <path clip-path="url(#p6e8b04ffa7)" d="
M 63.5 373.5
L 63.5 18.5" style="fill:none;stroke:#000000;stroke-dasharray:1.000000,3.000000;stroke-dashoffset:0.0;stroke-width:0.5;"/>
          </g>
          <g id="line2d_12">
            <defs>
              <path d="
M 0 0
L 0 -4" id="m56cb9a4f4c" style="stroke:#000000;stroke-width:1.25;"/>
            </defs>
            <g>
              <use style="stroke:#000000;stroke-width:1.25;" x="63.5" xlink:href="#m56cb9a4f4c" y="373.5"/>
            </g>
          </g>
          <g id="line2d_13">
            <defs>
              <path d="
M 0 0
L 0 4" id="m01134c304f" style="stroke:#000000;stroke-width:1.25;"/>
            </defs>
            <g>
              <use style="stroke:#000000;stroke-width:1.25;" x="63.5" xlink:href="#m01134c304f" y="18.5"/>
            </g>
          </g>
          <g id="text_1">
            <!-- −4 -->
            <defs>
              <path d="
M 37.7969 64.3125
L 12.8906 25.3906
L 37.7969 25.3906
z 

M 35.2031 72.9062
L 47.6094 72.9062
L 47.6094 25.3906
L 58.0156 25.3906
L 58.0156 17.1875
L 47.6094 17.1875
L 47.6094 0
L 37.7969 0
L 37.7969 17.1875
L 4.89062 17.1875
L 4.89062 26.7031
z 
" id="DejaVuSans-34"/>
              <path d="
M 10.5938 35.5
L 73.1875 35.5
L 73.1875 27.2031
L 10.5938 27.2031
z 
" id="DejaVuSans-2212"/>
            </defs>
            <g transform="translate(53.0025 392.6575)scale(0.16 -0.16)">
              <use xlink:href="#DejaVuSans-2212"/>
              <use x="83.7890625" xlink:href="#DejaVuSans-34"/>
            </g>
          </g>
        </g>
        <g id="xtick_2">
          <g id="line2d_14">
            <path clip-path="url(#p6e8b04ffa7)" d="
M 127.875 373.5
L 127.875 18.5" style="fill:none;stroke:#000000;stroke-dasharray:1.000000,3.000000;stroke-dashoffset:0.0;stroke-width:0.5;"/>
          </g>
          <g id="line2d_15">
            <g>
              <use style="stroke:#000000;stroke-width:1.25;" x="127.875" xlink:href="#m56cb9a4f4c" y="373.5"/>
            </g>
          </g>
          <g id="line2d_16">
            <g>
              <use style="stroke:#000000;stroke-width:1.25;" x="127.875" xlink:href="#m01134c304f" y="18.5"/>
            </g>
          </g>
          <g id="text_2">
            <!-- −3 -->
            <defs>
              <path d="
M 40.5781 39.3125
Q 47.6562 37.7969 51.625 33
Q 55.6094 28.2188 55.6094 21.1875
Q 55.6094 10.4062 48.1875 4.48438
Q 40.7656 -1.42188 27.0938 -1.42188
Q 22.5156 -1.42188 17.6562 -0.515625
Q 12.7969 0.390625 7.625 2.20312
L 7.625 11.7188
Q 11.7188 9.32812 16.5938 8.10938
Q 21.4844 6.89062 26.8125 6.89062
Q 36.0781 6.89062 40.9375 10.5469
Q 45.7969 14.2031 45.7969 21.1875
Q 45.7969 27.6406 41.2812 31.2656
Q 36.7656 34.9062 28.7188 34.9062
L 20.2188 34.9062
L 20.2188 43.0156
L 29.1094 43.0156
Q 36.375 43.0156 40.2344 45.9219
Q 44.0938 48.8281 44.0938 54.2969
Q 44.0938 59.9062 40.1094 62.9062
Q 36.1406 65.9219 28.7188 65.9219
Q 24.6562 65.9219 20.0156 65.0312
Q 15.375 64.1562 9.8125 62.3125
L 9.8125 71.0938
Q 15.4375 72.6562 20.3438 73.4375
Q 25.25 74.2188 29.5938 74.2188
Q 40.8281 74.2188 47.3594 69.1094
Q 53.9062 64.0156 53.9062 55.3281
Q 53.9062 49.2656 50.4375 45.0938
Q 46.9688 40.9219 40.5781 39.3125" id="DejaVuSans-33"/>
            </defs>
            <g transform="translate(117.57 392.6575)scale(0.16 -0.16)">
              <use xlink:href="#DejaVuSans-2212"/>
              <use x="83.7890625" xlink:href="#DejaVuSans-33"/>
            </g>
          </g>
        </g>
        <g id="xtick_3">
          <g id="line2d_17">
            <path clip-path="url(#p6e8b04ffa7)" d="
M 192.25 373.5
L 192.25 18.5" style="fill:none;stroke:#000000;stroke-dasharray:1.000000,3.000000;stroke-dashoffset:0.0;stroke-width:0.5;"/>
          </g>
          <g id="line2d_18">
            <g>
              <use style="stroke:#000000;stroke-width:1.25;" x="192.25" xlink:href="#m56cb9a4f4c" y="373.5"/>
            </g>
          </g>
          <g id="line2d_19">
            <g>
              <use style="stroke:#000000;stroke-width:1.25;" x="192.25" xlink:href="#m01134c304f" y="18.5"/>
            </g>
          </g>
          <g id="text_3">
            <!-- −2 -->
            <defs>
              <path d="
M 19.1875 8.29688
L 53.6094 8.29688
L 53.6094 0
L 7.32812 0
L 7.32812 8.29688
Q 12.9375 14.1094 22.625 23.8906
Q 32.3281 33.6875 34.8125 36.5312
Q 39.5469 41.8438 41.4219 45.5312
Q 43.3125 49.2188 43.3125 52.7812
Q 43.3125 58.5938 39.2344 62.25
Q 35.1562 65.9219 28.6094 65.9219
Q 23.9688 65.9219 18.8125 64.3125
Q 13.6719 62.7031 7.8125 59.4219
L 7.8125 69.3906
Q 13.7656 71.7812 18.9375 73
Q 24.125 74.2188 28.4219 74.2188
Q 39.75 74.2188 46.4844 68.5469
Q 53.2188 62.8906 53.2188 53.4219
Q 53.2188 48.9219 51.5312 44.8906
Q 49.8594 40.875 45.4062 35.4062
Q 44.1875 33.9844 37.6406 27.2188
Q 31.1094 20.4531 19.1875 8.29688" id="DejaVuSans-32"/>
            </defs>
            <g transform="translate(182.105 392.6575)scale(0.16 -0.16)">
              <use xlink:href="#DejaVuSans-2212"/>
              <use x="83.7890625" xlink:href="#DejaVuSans-32"/>
            </g>
          </g>
        </g>
        <g id="xtick_4">
          <g id="line2d_20">
            <path clip-path="url(#p6e8b04ffa7)" d="
M 256.625 373.5
L 256.625 18.5" style="fill:none;stroke:#000000;stroke-dasharray:1.000000,3.000000;stroke-dashoffset:0.0;stroke-width:0.5;"/>
          </g>
          <g id="line2d_21">
            <g>
              <use style="stroke:#000000;stroke-width:1.25;" x="256.625" xlink:href="#m56cb9a4f4c" y="373.5"/>
            </g>
          </g>
          <g id="line2d_22">
            <g>
              <use style="stroke:#000000;stroke-width:1.25;" x="256.625" xlink:href="#m01134c304f" y="18.5"/>
            </g>
          </g>
          <g id="text_4">
            <!-- −1 -->
            <defs>
              <path d="
M 12.4062 8.29688
L 28.5156 8.29688
L 28.5156 63.9219
L 10.9844 60.4062
L 10.9844 69.3906
L 28.4219 72.9062
L 38.2812 72.9062
L 38.2812 8.29688
L 54.3906 8.29688
L 54.3906 0
L 12.4062 0
z 
" id="DejaVuSans-31"/>
            </defs>
            <g transform="translate(246.4175 392.6575)scale(0.16 -0.16)">
              <use xlink:href="#DejaVuSans-2212"/>
              <use x="83.7890625" xlink:href="#DejaVuSans-31"/>
            </g>
          </g>
        </g>
        <g id="xtick_5">
          <g id="line2d_23">
            <path clip-path="url(#p6e8b04ffa7)" d="
M 321 373.5
L 321 18.5" style="fill:none;stroke:#000000;stroke-dasharray:3.000000,1.000000;stroke-dashoffset:0.0;stroke-width:0.5;"/>
          </g>
          <g id="line2d_24">
            <g>
              <use style="stroke:#000000;stroke-width:1.25;" x="321.0" xlink:href="#m56cb9a4f4c" y="373.5"/>
            </g>
          </g>
          <g id="line2d_25">
            <g>
              <use style="stroke:#000000;stroke-width:1.25;" x="321.0" xlink:href="#m01134c304f" y="18.5"/>
            </g>
          </g>
          <g id="text_5">
            <!-- 0 -->
            <defs>
              <path d="
M 31.7812 66.4062
Q 24.1719 66.4062 20.3281 58.9062
Q 16.5 51.4219 16.5 36.375
Q 16.5 21.3906 20.3281 13.8906
Q 24.1719 6.39062 31.7812 6.39062
Q 39.4531 6.39062 43.2812 13.8906
Q 47.125 21.3906 47.125 36.375
Q 47.125 51.4219 43.2812 58.9062
Q 39.4531 66.4062 31.7812 66.4062
M 31.7812 74.2188
Q 44.0469 74.2188 50.5156 64.5156
Q 56.9844 54.8281 56.9844 36.375
Q 56.9844 17.9688 50.5156 8.26562
Q 44.0469 -1.42188 31.7812 -1.42188
Q 19.5312 -1.42188 13.0625 8.26562
Q 6.59375 17.9688 6.59375 36.375
Q 6.59375 54.8281 13.0625 64.5156
Q 19.5312 74.2188 31.7812 74.2188" id="DejaVuSans-30"/>
            </defs>
            <g transform="translate(316.96875 392.6575)scale(0.16 -0.16)">
              <use xlink:href="#DejaVuSans-30"/>
            </g>
          </g>
        </g>
        <g id="xtick_6">
          <g id="line2d_26">
            <path clip-path="url(#p6e8b04ffa7)" d="
M 385.375 373.5
L 385.375 18.5" style="fill:none;stroke:#000000;stroke-dasharray:1.000000,3.000000;stroke-dashoffset:0.0;stroke-width:0.5;"/>
          </g>
          <g id="line2d_27">
            <g>
              <use style="stroke:#000000;stroke-width:1.25;" x="385.375" xlink:href="#m56cb9a4f4c" y="373.5"/>
            </g>
          </g>
          <g id="line2d_28">
            <g>
              <use style="stroke:#000000;stroke-width:1.25;" x="385.375" xlink:href="#m01134c304f" y="18.5"/>
            </g>
          </g>
          <g id="text_6">
            <!-- 1 -->
            <g transform="translate(381.9025 392.6575)scale(0.16 -0.16)">
              <use xlink:href="#DejaVuSans-31"/>
            </g>
          </g>
        </g>
        <g id="xtick_7">
          <g id="line2d_29">
            <path clip-path="url(#p6e8b04ffa7)" d="
M 449.75 373.5
L 449.75 18.5" style="fill:none;stroke:#000000;stroke-dasharray:1.000000,3.000000;stroke-dashoffset:0.0;stroke-width:0.5;"/>
          </g>
          <g id="line2d_30">
            <g>
              <use style="stroke:#000000;stroke-width:1.25;" x="449.75" xlink:href="#m56cb9a4f4c" y="373.5"/>
            </g>
          </g>
          <g id="line2d_31">
            <g>
              <use style="stroke:#000000;stroke-width:1.25;" x="449.75" xlink:href="#m01134c304f" y="18.5"/>
            </g>
          </g>
          <g id="text_7">
            <!-- 2 -->
            <g transform="translate(446.0475 392.6575)scale(0.16 -0.16)">
              <use xlink:href="#DejaVuSans-32"/>
            </g>
          </g>
        </g>
        <g id="xtick_8">
          <g id="line2d_32">
            <path clip-path="url(#p6e8b04ffa7)" d="
M 514.125 373.5
L 514.125 18.5" style="fill:none;stroke:#000000;stroke-dasharray:1.000000,3.000000;stroke-dashoffset:0.0;stroke-width:0.5;"/>
          </g>
          <g id="line2d_33">
            <g>
              <use style="stroke:#000000;stroke-width:1.25;" x="514.125" xlink:href="#m56cb9a4f4c" y="373.5"/>
            </g>
          </g>
          <g id="line2d_34">
            <g>
              <use style="stroke:#000000;stroke-width:1.25;" x="514.125" xlink:href="#m01134c304f" y="18.5"/>
            </g>
          </g>
          <g id="text_8">
            <!-- 3 -->
            <g transform="translate(510.28625 392.6575)scale(0.16 -0.16)">
              <use xlink:href="#DejaVuSans-33"/>
            </g>
          </g>
        </g>
        <g id="xtick_9">
          <g id="line2d_35">
            <path clip-path="url(#p6e8b04ffa7)" d="
M 578.5 373.5
L 578.5 18.5" style="fill:none;stroke:#000000;stroke-dasharray:1.000000,3.000000;stroke-dashoffset:0.0;stroke-width:0.5;"/>
          </g>
          <g id="line2d_36">
            <g>
              <use style="stroke:#000000;stroke-width:1.25;" x="578.5" xlink:href="#m56cb9a4f4c" y="373.5"/>
            </g>
          </g>
          <g id="line2d_37">
            <g>
              <use style="stroke:#000000;stroke-width:1.25;" x="578.5" xlink:href="#m01134c304f" y="18.5"/>
            </g>
          </g>
          <g id="text_9">
            <!-- 4 -->
            <g transform="translate(574.25 392.6575)scale(0.16 -0.16)">
              <use xlink:href="#DejaVuSans-34"/>
            </g>
          </g>
        </g>
      </g>
      <g id="matplotlib.axis_2">
        <g id="ytick_1">
          <g id="line2d_38">
            <path clip-path="url(#p6e8b04ffa7)" d="
M 63.5 348.143
L 578.5 348.143" style="fill:none;stroke:#000000;stroke-dasharray:1.000000,3.000000;stroke-dashoffset:0.0;stroke-width:0.5;"/>
          </g>
          <g id="line2d_39">
            <defs>
              <path d="
M 0 0
L 4 0" id="m86ea02120d" style="stroke:#000000;stroke-width:1.25;"/>
            </defs>
            <g>
              <use style="stroke:#000000;stroke-width:1.25;" x="63.5" xlink:href="#m86ea02120d" y="348.142857143"/>
            </g>
          </g>
          <g id="line2d_40">
            <defs>
              <path d="
M 0 0
L -4 0" id="m08e0baaaa9" style="stroke:#000000;stroke-width:1.25;"/>
            </defs>
            <g>
              <use style="stroke:#000000;stroke-width:1.25;" x="578.5" xlink:href="#m08e0baaaa9" y="348.142857143"/>
            </g>
          </g>
          <g id="text_10">
            <!-- −0.5π -->
            <defs>
              <path d="
M 3.60938 54.6875
L 56 54.6875
L 56 45.7031
L 49.125 45.7031
L 49.125 12.1094
Q 49.125 8.59375 50.3125 7.04688
Q 51.5156 5.51562 54.2031 5.51562
Q 54.9375 5.51562 56 5.64062
Q 57.0781 5.76562 57.4219 5.8125
L 57.4219 -0.6875
Q 55.7188 -1.3125 53.9062 -1.60938
Q 52.0938 -1.90625 50.2969 -1.90625
Q 44.4375 -1.90625 42.1875 1.29688
Q 39.9375 4.5 39.9375 13.0938
L 39.9375 45.7031
L 19.7812 45.7031
L 19.7812 0
L 10.5938 0
L 10.5938 45.7031
L 3.60938 45.7031
z 
" id="DejaVuSans-3c0"/>
              <path d="
M 10.7969 72.9062
L 49.5156 72.9062
L 49.5156 64.5938
L 19.8281 64.5938
L 19.8281 46.7344
Q 21.9688 47.4688 24.1094 47.8281
Q 26.2656 48.1875 28.4219 48.1875
Q 40.625 48.1875 47.75 41.5
Q 54.8906 34.8125 54.8906 23.3906
Q 54.8906 11.625 47.5625 5.09375
Q 40.2344 -1.42188 26.9062 -1.42188
Q 22.3125 -1.42188 17.5469 -0.640625
Q 12.7969 0.140625 7.71875 1.70312
L 7.71875 11.625
Q 12.1094 9.23438 16.7969 8.0625
Q 21.4844 6.89062 26.7031 6.89062
Q 35.1562 6.89062 40.0781 11.3281
Q 45.0156 15.7656 45.0156 23.3906
Q 45.0156 31 40.0781 35.4375
Q 35.1562 39.8906 26.7031 39.8906
Q 22.75 39.8906 18.8125 39.0156
Q 14.8906 38.1406 10.7969 36.2812
z 
" id="DejaVuSans-35"/>
              <path d="
M 10.6875 12.4062
L 21 12.4062
L 21 0
L 10.6875 0
z 
" id="DejaVuSans-2e"/>
            </defs>
            <g transform="translate(10.155 352.557857143)scale(0.16 -0.16)">
              <use xlink:href="#DejaVuSans-2212"/>
              <use x="83.7890625" xlink:href="#DejaVuSans-30"/>
              <use x="147.412109375" xlink:href="#DejaVuSans-2e"/>
              <use x="179.19921875" xlink:href="#DejaVuSans-35"/>
              <use x="242.822265625" xlink:href="#DejaVuSans-3c0"/>
            </g>
          </g>
        </g>
        <g id="ytick_2">
          <g id="line2d_41">
            <path clip-path="url(#p6e8b04ffa7)" d="
M 63.5 297.429
L 578.5 297.429" style="fill:none;stroke:#000000;stroke-dasharray:1.000000,3.000000;stroke-dashoffset:0.0;stroke-width:0.5;"/>
          </g>
          <g id="line2d_42">
            <g>
              <use style="stroke:#000000;stroke-width:1.25;" x="63.5" xlink:href="#m86ea02120d" y="297.428571429"/>
            </g>
          </g>
          <g id="line2d_43">
            <g>
              <use style="stroke:#000000;stroke-width:1.25;" x="578.5" xlink:href="#m08e0baaaa9" y="297.428571429"/>
            </g>
          </g>
          <g id="text_11">
            <!-- −0.25π -->
            <g transform="translate(-0.025 301.843571429)scale(0.16 -0.16)">
              <use xlink:href="#DejaVuSans-2212"/>
              <use x="83.7890625" xlink:href="#DejaVuSans-30"/>
              <use x="147.412109375" xlink:href="#DejaVuSans-2e"/>
              <use x="179.19921875" xlink:href="#DejaVuSans-32"/>
              <use x="242.822265625" xlink:href="#DejaVuSans-35"/>
              <use x="306.4453125" xlink:href="#DejaVuSans-3c0"/>
            </g>
          </g>
        </g>
        <g id="ytick_3">
          <g id="line2d_44">
            <path clip-path="url(#p6e8b04ffa7)" d="
M 63.5 246.714
L 578.5 246.714" style="fill:none;stroke:#000000;stroke-dasharray:3.000000,1.000000;stroke-dashoffset:0.0;stroke-width:0.5;"/>
          </g>
          <g id="line2d_45">
            <g>
              <use style="stroke:#000000;stroke-width:1.25;" x="63.5" xlink:href="#m86ea02120d" y="246.714285714"/>
            </g>
          </g>
          <g id="line2d_46">
            <g>
              <use style="stroke:#000000;stroke-width:1.25;" x="578.5" xlink:href="#m08e0baaaa9" y="246.714285714"/>
            </g>
          </g>
          <g id="text_12">
            <!-- 0.0π -->
            <g transform="translate(22.9225 251.129285714)scale(0.16 -0.16)">
              <use xlink:href="#DejaVuSans-30"/>
              <use x="63.623046875" xlink:href="#DejaVuSans-2e"/>
              <use x="95.41015625" xlink:href="#DejaVuSans-30"/>
              <use x="159.033203125" xlink:href="#DejaVuSans-3c0"/>
            </g>
          </g>
        </g>
        <g id="ytick_4">
          <g id="line2d_47">
            <path clip-path="url(#p6e8b04ffa7)" d="
M 63.5 196
L 578.5 196" style="fill:none;stroke:#000000;stroke-dasharray:1.000000,3.000000;stroke-dashoffset:0.0;stroke-width:0.5;"/>
          </g>
          <g id="line2d_48">
            <g>
              <use style="stroke:#000000;stroke-width:1.25;" x="63.5" xlink:href="#m86ea02120d" y="196.0"/>
            </g>
          </g>
          <g id="line2d_49">
            <g>
              <use style="stroke:#000000;stroke-width:1.25;" x="578.5" xlink:href="#m08e0baaaa9" y="196.0"/>
            </g>
          </g>
          <g id="text_13">
            <!-- 0.25π -->
            <g transform="translate(12.7425 200.415)scale(0.16 -0.16)">
              <use xlink:href="#DejaVuSans-30"/>
              <use x="63.623046875" xlink:href="#DejaVuSans-2e"/>
              <use x="95.41015625" xlink:href="#DejaVuSans-32"/>
              <use x="159.033203125" xlink:href="#DejaVuSans-35"/>
              <use x="222.65625" xlink:href="#DejaVuSans-3c0"/>
            </g>
          </g>
        </g>
        <g id="ytick_5">
          <g id="line2d_50">
            <path clip-path="url(#p6e8b04ffa7)" d="
M 63.5 145.286
L 578.5 145.286" style="fill:none;stroke:#000000;stroke-dasharray:1.000000,3.000000;stroke-dashoffset:0.0;stroke-width:0.5;"/>
          </g>
          <g id="line2d_51">
            <g>
              <use style="stroke:#000000;stroke-width:1.25;" x="63.5" xlink:href="#m86ea02120d" y="145.285714286"/>
            </g>
          </g>
          <g id="line2d_52">
            <g>
              <use style="stroke:#000000;stroke-width:1.25;" x="578.5" xlink:href="#m08e0baaaa9" y="145.285714286"/>
            </g>
          </g>
          <g id="text_14">
            <!-- 0.5π -->
            <g transform="translate(22.9225 149.700714286)scale(0.16 -0.16)">
              <use xlink:href="#DejaVuSans-30"/>
              <use x="63.623046875" xlink:href="#DejaVuSans-2e"/>
              <use x="95.41015625" xlink:href="#DejaVuSans-35"/>
              <use x="159.033203125" xlink:href="#DejaVuSans-3c0"/>
            </g>
          </g>
        </g>
        <g id="ytick_6">
          <g id="line2d_53">
            <path clip-path="url(#p6e8b04ffa7)" d="
M 63.5 94.5714
L 578.5 94.5714" style="fill:none;stroke:#000000;stroke-dasharray:1.000000,3.000000;stroke-dashoffset:0.0;stroke-width:0.5;"/>
          </g>
          <g id="line2d_54">
            <g>
              <use style="stroke:#000000;stroke-width:1.25;" x="63.5" xlink:href="#m86ea02120d" y="94.5714285714"/>
            </g>
          </g>
          <g id="line2d_55">
            <g>
              <use style="stroke:#000000;stroke-width:1.25;" x="578.5" xlink:href="#m08e0baaaa9" y="94.5714285714"/>
            </g>
          </g>
          <g id="text_15">
            <!-- 0.75π -->
            <defs>
              <path d="
M 8.20312 72.9062
L 55.0781 72.9062
L 55.0781 68.7031
L 28.6094 0
L 18.3125 0
L 43.2188 64.5938
L 8.20312 64.5938
z 
" id="DejaVuSans-37"/>
            </defs>
            <g transform="translate(12.7425 98.9864285714)scale(0.16 -0.16)">
              <use xlink:href="#DejaVuSans-30"/>
              <use x="63.623046875" xlink:href="#DejaVuSans-2e"/>
              <use x="95.41015625" xlink:href="#DejaVuSans-37"/>
              <use x="159.033203125" xlink:href="#DejaVuSans-35"/>
              <use x="222.65625" xlink:href="#DejaVuSans-3c0"/>
            </g>
          </g>
        </g>
        <g id="ytick_7">
          <g id="line2d_56">
            <path clip-path="url(#p6e8b04ffa7)" d="
M 63.5 43.8571
L 578.5 43.8571" style="fill:none;stroke:#000000;stroke-dasharray:1.000000,3.000000;stroke-dashoffset:0.0;stroke-width:0.5;"/>
          </g>
          <g id="line2d_57">
            <g>
              <use style="stroke:#000000;stroke-width:1.25;" x="63.5" xlink:href="#m86ea02120d" y="43.8571428571"/>
            </g>
          </g>
          <g id="line2d_58">
            <g>
              <use style="stroke:#000000;stroke-width:1.25;" x="578.5" xlink:href="#m08e0baaaa9" y="43.8571428571"/>
            </g>
          </g>
          <g id="text_16">
            <!-- 1.0π -->
            <g transform="translate(23.625 48.2721428571)scale(0.16 -0.16)">
              <use xlink:href="#DejaVuSans-31"/>
              <use x="63.623046875" xlink:href="#DejaVuSans-2e"/>
              <use x="95.41015625" xlink:href="#DejaVuSans-30"/>
              <use x="159.033203125" xlink:href="#DejaVuSans-3c0"/>
            </g>
          </g>
        </g>
      </g>
      <g id="patch_3">
        <path d="
M 63.5 18.5
L 578.5 18.5" style="fill:none;stroke:#000000;stroke-width:1.25;"/>
      </g>
      <g id="patch_4">
        <path d="
M 578.5 373.5
L 578.5 18.5" style="fill:none;stroke:#000000;stroke-width:1.25;"/>
      </g>
      <g id="patch_5">
        <path d="
M 63.5 373.5
L 578.5 373.5" style="fill:none;stroke:#000000;stroke-width:1.25;"/>
      </g>
      <g id="patch_6">
        <path d="
M 63.5 373.5
L 63.5 18.5" style="fill:none;stroke:#000000;stroke-width:1.25;"/>
      </g>
      <g id="legend_1">
        <g id="patch_7">
          <path d="
M 312.763 124.166
L 563.14 124.166
L 563.14 33.86
L 312.763 33.86
L 312.763 124.166
z 
" style="fill:#ffffff;opacity:0.9;stroke:#000000;"/>
        </g>
        <g id="line2d_59">
          <path d="
M 326.203 49.409
L 353.083 49.409" style="fill:none;stroke:#0000cc;stroke-linecap:square;stroke-width:2.4;"/>
        </g>
        <g id="line2d_60"/>
        <g id="text_17">
          <!-- arcsin -->
          <defs>
            <path d="
M 54.8906 33.0156
L 54.8906 0
L 45.9062 0
L 45.9062 32.7188
Q 45.9062 40.4844 42.875 44.3281
Q 39.8438 48.1875 33.7969 48.1875
Q 26.5156 48.1875 22.3125 43.5469
Q 18.1094 38.9219 18.1094 30.9062
L 18.1094 0
L 9.07812 0
L 9.07812 54.6875
L 18.1094 54.6875
L 18.1094 46.1875
Q 21.3438 51.125 25.7031 53.5625
Q 30.0781 56 35.7969 56
Q 45.2188 56 50.0469 50.1719
Q 54.8906 44.3438 54.8906 33.0156" id="DejaVuSans-6e"/>
            <path d="
M 9.42188 54.6875
L 18.4062 54.6875
L 18.4062 0
L 9.42188 0
z 

M 9.42188 75.9844
L 18.4062 75.9844
L 18.4062 64.5938
L 9.42188 64.5938
z 
" id="DejaVuSans-69"/>
            <path d="
M 34.2812 27.4844
Q 23.3906 27.4844 19.1875 25
Q 14.9844 22.5156 14.9844 16.5
Q 14.9844 11.7188 18.1406 8.90625
Q 21.2969 6.10938 26.7031 6.10938
Q 34.1875 6.10938 38.7031 11.4062
Q 43.2188 16.7031 43.2188 25.4844
L 43.2188 27.4844
z 

M 52.2031 31.2031
L 52.2031 0
L 43.2188 0
L 43.2188 8.29688
Q 40.1406 3.32812 35.5469 0.953125
Q 30.9531 -1.42188 24.3125 -1.42188
Q 15.9219 -1.42188 10.9531 3.29688
Q 6 8.01562 6 15.9219
Q 6 25.1406 12.1719 29.8281
Q 18.3594 34.5156 30.6094 34.5156
L 43.2188 34.5156
L 43.2188 35.4062
Q 43.2188 41.6094 39.1406 45
Q 35.0625 48.3906 27.6875 48.3906
Q 23 48.3906 18.5469 47.2656
Q 14.1094 46.1406 10.0156 43.8906
L 10.0156 52.2031
Q 14.9375 54.1094 19.5781 55.0469
Q 24.2188 56 28.6094 56
Q 40.4844 56 46.3438 49.8438
Q 52.2031 43.7031 52.2031 31.2031" id="DejaVuSans-61"/>
            <path d="
M 48.7812 52.5938
L 48.7812 44.1875
Q 44.9688 46.2969 41.1406 47.3438
Q 37.3125 48.3906 33.4062 48.3906
Q 24.6562 48.3906 19.8125 42.8438
Q 14.9844 37.3125 14.9844 27.2969
Q 14.9844 17.2812 19.8125 11.7344
Q 24.6562 6.20312 33.4062 6.20312
Q 37.3125 6.20312 41.1406 7.25
Q 44.9688 8.29688 48.7812 10.4062
L 48.7812 2.09375
Q 45.0156 0.34375 40.9844 -0.53125
Q 36.9688 -1.42188 32.4219 -1.42188
Q 20.0625 -1.42188 12.7812 6.34375
Q 5.51562 14.1094 5.51562 27.2969
Q 5.51562 40.6719 12.8594 48.3281
Q 20.2188 56 33.0156 56
Q 37.1562 56 41.1094 55.1406
Q 45.0625 54.2969 48.7812 52.5938" id="DejaVuSans-63"/>
            <path d="
M 44.2812 53.0781
L 44.2812 44.5781
Q 40.4844 46.5312 36.375 47.5
Q 32.2812 48.4844 27.875 48.4844
Q 21.1875 48.4844 17.8438 46.4375
Q 14.5 44.3906 14.5 40.2812
Q 14.5 37.1562 16.8906 35.375
Q 19.2812 33.5938 26.5156 31.9844
L 29.5938 31.2969
Q 39.1562 29.25 43.1875 25.5156
Q 47.2188 21.7812 47.2188 15.0938
Q 47.2188 7.46875 41.1875 3.01562
Q 35.1562 -1.42188 24.6094 -1.42188
Q 20.2188 -1.42188 15.4531 -0.5625
Q 10.6875 0.296875 5.42188 2
L 5.42188 11.2812
Q 10.4062 8.6875 15.2344 7.39062
Q 20.0625 6.10938 24.8125 6.10938
Q 31.1562 6.10938 34.5625 8.28125
Q 37.9844 10.4531 37.9844 14.4062
Q 37.9844 18.0625 35.5156 20.0156
Q 33.0625 21.9688 24.7031 23.7812
L 21.5781 24.5156
Q 13.2344 26.2656 9.51562 29.9062
Q 5.8125 33.5469 5.8125 39.8906
Q 5.8125 47.6094 11.2812 51.7969
Q 16.75 56 26.8125 56
Q 31.7812 56 36.1719 55.2656
Q 40.5781 54.5469 44.2812 53.0781" id="DejaVuSans-73"/>
            <path d="
M 41.1094 46.2969
Q 39.5938 47.1719 37.8125 47.5781
Q 36.0312 48 33.8906 48
Q 26.2656 48 22.1875 43.0469
Q 18.1094 38.0938 18.1094 28.8125
L 18.1094 0
L 9.07812 0
L 9.07812 54.6875
L 18.1094 54.6875
L 18.1094 46.1875
Q 20.9531 51.1719 25.4844 53.5781
Q 30.0312 56 36.5312 56
Q 37.4531 56 38.5781 55.875
Q 39.7031 55.7656 41.0625 55.5156
z 
" id="DejaVuSans-72"/>
          </defs>
          <g transform="translate(366.523 56.129)scale(0.192 -0.192)">
            <use xlink:href="#DejaVuSans-61"/>
            <use x="61.279296875" xlink:href="#DejaVuSans-72"/>
            <use x="100.142578125" xlink:href="#DejaVuSans-63"/>
            <use x="155.123046875" xlink:href="#DejaVuSans-73"/>
            <use x="207.22265625" xlink:href="#DejaVuSans-69"/>
            <use x="235.005859375" xlink:href="#DejaVuSans-6e"/>
          </g>
        </g>
        <g id="line2d_61">
          <path d="
M 326.203 77.591
L 353.083 77.591" style="fill:none;stroke:#dd00aa;stroke-linecap:square;stroke-width:2.4;"/>
        </g>
        <g id="line2d_62"/>
        <g id="text_18">
          <!-- arccos -->
          <defs>
            <path d="
M 30.6094 48.3906
Q 23.3906 48.3906 19.1875 42.75
Q 14.9844 37.1094 14.9844 27.2969
Q 14.9844 17.4844 19.1562 11.8438
Q 23.3438 6.20312 30.6094 6.20312
Q 37.7969 6.20312 41.9844 11.8594
Q 46.1875 17.5312 46.1875 27.2969
Q 46.1875 37.0156 41.9844 42.7031
Q 37.7969 48.3906 30.6094 48.3906
M 30.6094 56
Q 42.3281 56 49.0156 48.375
Q 55.7188 40.7656 55.7188 27.2969
Q 55.7188 13.875 49.0156 6.21875
Q 42.3281 -1.42188 30.6094 -1.42188
Q 18.8438 -1.42188 12.1719 6.21875
Q 5.51562 13.875 5.51562 27.2969
Q 5.51562 40.7656 12.1719 48.375
Q 18.8438 56 30.6094 56" id="DejaVuSans-6f"/>
          </defs>
          <g transform="translate(366.523 84.311)scale(0.192 -0.192)">
            <use xlink:href="#DejaVuSans-61"/>
            <use x="61.279296875" xlink:href="#DejaVuSans-72"/>
            <use x="100.142578125" xlink:href="#DejaVuSans-63"/>
            <use x="155.123046875" xlink:href="#DejaVuSans-63"/>
            <use x="210.103515625" xlink:href="#DejaVuSans-6f"/>
            <use x="271.28515625" xlink:href="#DejaVuSans-73"/>
          </g>
        </g>
        <g id="line2d_63">
          <path d="
M 326.203 105.773
L 353.083 105.773" style="fill:none;stroke:#999900;stroke-linecap:square;stroke-width:2.4;"/>
        </g>
        <g id="line2d_64"/>
        <g id="text_19">
          <!-- arctan -->
          <defs>
            <path d="
M 18.3125 70.2188
L 18.3125 54.6875
L 36.8125 54.6875
L 36.8125 47.7031
L 18.3125 47.7031
L 18.3125 18.0156
Q 18.3125 11.3281 20.1406 9.42188
Q 21.9688 7.51562 27.5938 7.51562
L 36.8125 7.51562
L 36.8125 0
L 27.5938 0
Q 17.1875 0 13.2344 3.875
Q 9.28125 7.76562 9.28125 18.0156
L 9.28125 47.7031
L 2.6875 47.7031
L 2.6875 54.6875
L 9.28125 54.6875
L 9.28125 70.2188
z 
" id="DejaVuSans-74"/>
          </defs>
          <g transform="translate(366.523 112.493)scale(0.192 -0.192)">
            <use xlink:href="#DejaVuSans-61"/>
            <use x="61.279296875" xlink:href="#DejaVuSans-72"/>
            <use x="100.142578125" xlink:href="#DejaVuSans-63"/>
            <use x="155.123046875" xlink:href="#DejaVuSans-74"/>
            <use x="194.33203125" xlink:href="#DejaVuSans-61"/>
            <use x="255.611328125" xlink:href="#DejaVuSans-6e"/>
          </g>
        </g>
        <g id="line2d_65">
          <path d="
M 455.326 49.409
L 482.206 49.409" style="fill:none;stroke:#00bb00;stroke-linecap:square;stroke-width:2.4;"/>
        </g>
        <g id="line2d_66"/>
        <g id="text_20">
          <!-- arccot -->
          <g transform="translate(495.646 56.129)scale(0.192 -0.192)">
            <use xlink:href="#DejaVuSans-61"/>
            <use x="61.279296875" xlink:href="#DejaVuSans-72"/>
            <use x="100.142578125" xlink:href="#DejaVuSans-63"/>
            <use x="155.123046875" xlink:href="#DejaVuSans-63"/>
            <use x="210.103515625" xlink:href="#DejaVuSans-6f"/>
            <use x="271.28515625" xlink:href="#DejaVuSans-74"/>
          </g>
        </g>
        <g id="line2d_67">
          <path d="
M 455.326 77.591
L 482.206 77.591" style="fill:none;stroke:#00bbcc;stroke-linecap:square;stroke-width:2.4;"/>
        </g>
        <g id="line2d_68"/>
        <g id="text_21">
          <!-- arcsec -->
          <defs>
            <path d="
M 56.2031 29.5938
L 56.2031 25.2031
L 14.8906 25.2031
Q 15.4844 15.9219 20.4844 11.0625
Q 25.4844 6.20312 34.4219 6.20312
Q 39.5938 6.20312 44.4531 7.46875
Q 49.3125 8.73438 54.1094 11.2812
L 54.1094 2.78125
Q 49.2656 0.734375 44.1875 -0.34375
Q 39.1094 -1.42188 33.8906 -1.42188
Q 20.7969 -1.42188 13.1562 6.1875
Q 5.51562 13.8125 5.51562 26.8125
Q 5.51562 40.2344 12.7656 48.1094
Q 20.0156 56 32.3281 56
Q 43.3594 56 49.7812 48.8906
Q 56.2031 41.7969 56.2031 29.5938
M 47.2188 32.2344
Q 47.125 39.5938 43.0938 43.9844
Q 39.0625 48.3906 32.4219 48.3906
Q 24.9062 48.3906 20.3906 44.1406
Q 15.875 39.8906 15.1875 32.1719
z 
" id="DejaVuSans-65"/>
          </defs>
          <g transform="translate(495.646 84.311)scale(0.192 -0.192)">
            <use xlink:href="#DejaVuSans-61"/>
            <use x="61.279296875" xlink:href="#DejaVuSans-72"/>
            <use x="100.142578125" xlink:href="#DejaVuSans-63"/>
            <use x="155.123046875" xlink:href="#DejaVuSans-73"/>
            <use x="207.22265625" xlink:href="#DejaVuSans-65"/>
            <use x="268.74609375" xlink:href="#DejaVuSans-63"/>
          </g>
        </g>
        <g id="line2d_69">
          <path d="
M 455.326 105.773
L 482.206 105.773" style="fill:none;stroke:#af77dd;stroke-linecap:square;stroke-width:2.4;"/>
        </g>
        <g id="line2d_70"/>
        <g id="text_22">
          <!-- arccsc -->
          <g transform="translate(495.646 112.493)scale(0.192 -0.192)">
            <use xlink:href="#DejaVuSans-61"/>
            <use x="61.279296875" xlink:href="#DejaVuSans-72"/>
            <use x="100.142578125" xlink:href="#DejaVuSans-63"/>
            <use x="155.123046875" xlink:href="#DejaVuSans-63"/>
            <use x="210.103515625" xlink:href="#DejaVuSans-73"/>
            <use x="262.203125" xlink:href="#DejaVuSans-63"/>
          </g>
        </g>
      </g>
    </g>
  </g>
</svg>
